Coordinates
version=1
nRows=19
nColumns=36
inDegrees=yes

Units are S.I. units (second, meters, Newtons, ...)
If the header above contains a line with 'inDegrees', this indicates whether rotational values are in degrees (yes) or radians (no).

endheader
time	pelvis_tilt	pelvis_list	pelvis_rotation	pelvis_tx	pelvis_ty	pelvis_tz	hip_flexion_r	hip_adduction_r	hip_rotation_r	knee_angle_r	knee_angle_r_beta	ankle_angle_r	subtalar_angle_r	mtp_angle_r	hip_flexion_l	hip_adduction_l	hip_rotation_l	knee_angle_l	knee_angle_l_beta	ankle_angle_l	subtalar_angle_l	mtp_angle_l	lumbar_extension	lumbar_bending	lumbar_rotation	arm_flex_r	arm_add_r	arm_rot_r	elbow_flex_r	pro_sup_r	arm_flex_l	arm_add_l	arm_rot_l	elbow_flex_l	pro_sup_l
      6.30508470	      0.29897169	     -0.79316224	      1.82768960	      0.11605079	      0.93952092	     -0.06431145	      1.05481343	      0.23351581	      3.20361303	      4.44800111	      0.07763226	     -2.68005375	    -10.90300097	     -7.49999987	      0.83378583	      0.80019189	      6.27500316	      3.96236280	      0.06915628	      2.60935489	     -7.29170083	     -7.49999987	      3.64053912	      0.30229602	      1.82242245	     53.41023865	     -7.97790586	      4.30217247	     50.26604395	     64.50220955	     55.34701352	     -4.17515155	      8.91128160	     39.91930038	     54.50539008
      6.32203390	      0.32584132	     -0.73646317	      1.94086046	      0.11521187	      0.94096755	     -0.06461430	      1.06472844	      0.16120484	      3.02530671	      4.44764799	      0.07762610	     -2.62824901	    -10.59654811	     -7.49999987	      0.86302489	      0.88529821	      6.34954264	      4.07778811	      0.07117083	      2.55259263	     -7.31590597	     -7.49999987	      3.26407461	      0.34520714	      1.75726798	     52.03268668	     -7.70866194	      4.28566868	     49.72549430	     63.61893603	     53.76393249	     -3.45383492	      7.44724599	     39.58531700	     54.31089928
      6.33898310	      0.24769677	     -0.68382905	      1.98399203	      0.11533999	      0.94152619	     -0.06439159	      1.16815132	      0.12299507	      3.16619989	      4.35484289	      0.07600635	     -2.90248776	    -10.73255973	     -7.49999987	      0.99455828	      0.96098894	      6.40700303	      4.17411975	      0.07285213	      2.22674765	     -7.57432929	     -7.49999987	      2.97062740	      0.35383628	      1.75088286	     50.66005384	     -7.46557758	      4.46437537	     49.12467063	     63.37970355	     52.39049495	     -2.93474797	      6.72343605	     39.12299424	     53.82599086
      6.35593220	      0.26939372	     -0.65378394	      2.01911860	      0.11598219	      0.94132198	     -0.06432835	      1.19096140	      0.10871109	      3.23913385	      4.40344753	      0.07685466	     -2.80788019	    -10.68027959	     -7.49999987	      0.96473093	      1.01179356	      6.56821052	      4.18378536	      0.07302083	      2.04371474	     -7.90983589	     -7.49999987	      2.53599122	      0.47638706	      1.58053148	     49.44997950	     -7.13733656	      5.04966400	     48.54772915	     62.21046664	     50.91017178	     -2.77240448	      6.47905206	     39.26762574	     48.71589001
      6.37288140	      0.45505049	     -0.64787327	      2.03692961	      0.11642762	      0.94060215	     -0.06430482	      0.98969740	      0.12710632	      3.12301104	      4.42504660	      0.07723163	     -2.56439290	    -10.24636085	     -7.49999987	      0.73306789	      1.01032385	      6.52759306	      4.14557423	      0.07235392	      2.07562976	     -7.76696390	     -7.49999987	      1.83439449	      0.51165388	      1.70381957	     48.01207243	     -7.05203716	      4.95074290	     48.75894246	     61.94002436	     49.52174579	     -2.43072589	      6.00042868	     39.70080277	     49.32206766
      6.38983050	      0.59131295	     -0.66449839	      2.01766015	      0.11634893	      0.93982010	     -0.06424271	      0.87979158	      0.17649495	      3.23346449	      4.51662568	      0.07882999	     -2.44758818	    -10.29964298	     -7.49999987	      0.57034760	      0.99714984	      6.55766631	      4.10092468	      0.07157464	      2.01010650	     -7.90762055	     -7.49999987	      1.18617119	      0.54840164	      1.95649613	     46.55005032	     -7.04817700	      4.84745822	     48.79709624	     61.66296938	     48.15790300	     -2.04292506	      5.58847015	     40.09938253	     49.82727367
      6.40677970	      0.57798224	     -0.71195759	      1.99662270	      0.11632291	      0.93958247	     -0.06410926	      0.96506248	      0.25221603	      3.46433109	      4.67259863	      0.08155223	     -2.39073556	    -10.61328651	     -7.49999987	      0.59565442	      0.95917743	      6.67355190	      4.10219839	      0.07159687	      1.87654630	     -8.26140964	     -7.49999987	      0.82769980	      0.60220122	      2.12917195	     45.08849064	     -7.00732077	      4.94870699	     48.60108858	     61.38633038	     46.87901012	     -1.86833129	      5.66712152	     40.00947513	     49.98967138
      6.42372880	      0.80176401	     -0.75681412	      1.96290776	      0.11643963	      0.94029309	     -0.06375723	      0.76306819	      0.30416283	      3.45160337	      4.76312759	      0.08313226	     -2.01671888	    -10.26421765	     -7.49999987	      0.32875799	      0.88834594	      6.48279439	      4.06978285	      0.07103111	      2.02597721	     -7.93965952	     -7.49999987	      0.09240518	      0.58874357	      2.15676376	     43.34510062	     -7.02742972	      4.81009350	     49.17271757	     61.10868303	     45.37532533	     -2.06861888	      5.64567830	     40.84038912	     50.73605808
      6.44067800	      0.78416600	     -0.80422587	      1.91241304	      0.11648949	      0.94057388	     -0.06310664	      0.84743757	      0.36860343	      3.68639185	      4.86949869	      0.08498879	     -1.98781658	    -10.53112913	     -7.49999987	      0.34094829	      0.83588238	      6.61900716	      4.06106995	      0.07087904	      1.79162237	     -8.36585054	     -7.49999987	     -0.17573229	      0.54367296	      2.01391529	     41.49765024	     -7.03948018	      4.88430360	     49.04722622	     61.06038445	     44.05948204	     -2.63945057	      6.09980318	     40.53437935	     50.66060296
      6.45762710	      0.74952590	     -0.84322407	      1.83995398	      0.11646711	      0.94052821	     -0.06240489	      0.92762843	      0.44332215	      3.84073962	      4.93933555	      0.08620767	     -1.94894509	    -10.68799204	     -7.49999987	      0.37725977	      0.77098565	      6.62768586	      4.08608481	      0.07131563	      1.69348822	     -8.53258448	     -7.49999987	     -0.44329753	      0.45170017	      1.88020177	     39.42250008	     -7.07881644	      4.70324641	     49.18876703	     61.04817045	     42.60599157	     -3.43300485	      6.63876733	     40.58008686	     50.57150087
      6.47457630	      0.54700330	     -0.88641073	      1.73800446	      0.11647862	      0.94028302	     -0.06222800	      1.21876765	      0.51590167	      3.82785369	      5.08550473	      0.08875880	     -1.71017605	    -10.48061663	     -7.49999987	      0.63739776	      0.71304464	      6.43537498	      4.19725738	      0.07325596	      1.87388379	     -8.30740679	     -7.49999987	     -0.55090504	      0.39038355	      1.84307899	     37.30292427	     -7.17378975	      4.60891517	     49.34082060	     61.01686518	     40.97958537	     -3.99249359	      6.76437374	     40.90760092	     50.75818303
      6.49152540	      0.64902059	     -0.92646765	      1.68585391	      0.11645801	      0.94061599	     -0.06245815	      1.12932292	      0.60636339	      3.86877478	      5.12652547	      0.08947475	     -1.85330298	    -10.76873342	     -7.49999987	      0.56004651	      0.65184607	      6.38803526	      4.27475218	      0.07460850	      1.81429516	     -8.52450632	     -7.49999987	     -1.06767545	      0.32698011	      1.90010810	     35.44938694	     -7.07588696	      4.10398739	     49.05927737	     61.01603947	     39.63201552	     -4.30798815	      7.31191680	     40.95572281	     50.82026988
      6.50847460	      0.62392559	     -0.94972841	      1.64113919	      0.11657017	      0.94129319	     -0.06305879	      1.19771390	      0.65220798	      4.14355407	      5.18334115	      0.09046637	     -2.05552322	    -11.27282369	     -7.49999987	      0.62796757	      0.63070635	      6.53496249	      4.35957057	      0.07608886	      1.69718066	     -8.85833707	     -7.49999987	     -1.47695831	      0.27759834	      2.43182883	     33.14808353	     -6.93801063	      1.80147203	     49.12536491	     63.63230433	     38.98810361	     -4.50555082	     10.19048955	     40.10006901	     47.46538813
      6.52542370	      0.72483459	     -0.95634608	      1.61127612	      0.11682584	      0.94315051	     -0.06399335	      1.07899819	      0.62975555	      4.08772796	      5.12794474	      0.08949952	     -2.07602638	    -11.04251709	     -7.49999987	      0.50860383	      0.63144963	      6.47857397	      4.36495365	      0.07618281	      1.73620915	     -8.76911718	     -7.49999987	     -2.06621063	      0.28394366	      2.44944289	     31.31448981	     -6.89973572	      1.51867519	     48.87847632	     63.30639284	     37.51236271	     -4.49270068	     10.00785650	     40.34050838	     48.43013553
      6.54237290	      0.48467738	     -0.96447396	      1.60925879	      0.11741913	      0.94483660	     -0.06481635	      1.29703920	      0.57653476	      3.90134021	      5.01416552	      0.08751370	     -2.14495526	    -10.51719868	     -7.49999987	      0.72326079	      0.64499311	      6.33937838	      4.31485203	      0.07530837	      1.66284029	     -8.43055964	     -7.49999987	     -2.10553266	      0.34964347	      2.42208596	     29.23800104	     -6.94138830	      1.44933456	     48.68410060	     63.16902716	     35.79641827	     -4.46861013	      9.97280235	     40.43432473	     48.92055984
      6.55932200	      0.65030730	     -0.96027500	      1.53746601	      0.11782990	      0.94560888	     -0.06501711	      1.03093999	      0.54587272	      3.99519490	      4.80532365	      0.08386872	     -2.38542895	    -10.65909976	     -7.49999987	      0.48212152	      0.66944405	      6.35021711	      4.29853077	      0.07502352	      1.53770245	     -8.74552223	     -7.49999987	     -2.48086025	      0.35890075	      2.68975723	     27.51526362	     -6.85462837	      0.92419267	     47.51431423	     63.43685676	     34.72228790	     -3.93592513	      9.51864386	     38.79880573	     49.91376592
      6.57627120	      0.77270604	     -0.93597903	      1.46221253	      0.11820136	      0.94502244	     -0.06509166	      0.76961290	      0.49029049	      3.88139738	      4.55410828	      0.07948418	     -2.44289596	    -10.42910395	     -7.49999987	      0.23765115	      0.70729908	      6.24724901	      4.22603983	      0.07375831	      1.52897622	     -8.69493377	     -7.49999987	     -2.86276204	      0.39638514	      2.82084779	     25.64107486	     -6.74219924	      0.58379568	     47.11607136	     63.58770391	     33.21794135	     -3.73675153	      9.11793639	     38.39907844	     50.23001309
      6.59322030	      0.82686278	     -0.90053368	      1.39251964	      0.11815292	      0.94474041	     -0.06515589	      0.58029003	      0.43356553	      3.79257761	      4.31496623	      0.07531037	     -2.48492492	    -10.17426883	     -7.49999987	      0.07854711	      0.76257659	      6.09539648	      4.13329658	      0.07213963	      1.48286747	     -8.68765820	     -7.49999987	     -3.15653940	      0.38003438	      2.81763066	     23.82532170	     -6.58758587	      0.12126932	     46.69925040	     63.73314921	     31.73771686	     -3.57972831	      8.43942330	     37.89043504	     50.68039459
      6.61016950	      0.88440775	     -0.84142941	      1.32179606	      0.11805385	      0.94553842	     -0.06452870	      0.40763387	      0.37450665	      3.71995555	      4.10528676	      0.07165077	     -2.44711192	     -9.92949106	     -7.49999987	     -0.06822077	      0.82597360	      5.90122141	      4.03439523	      0.07041348	      1.45918717	     -8.65503865	     -7.49999987	     -3.44813523	      0.30447034	      2.74178744	     22.11510307	     -6.29853175	     -0.33901212	     46.13632744	     64.02672741	     30.37228349	     -3.50173257	      7.71023653	     37.12854550	     51.14727665
